<svg xmlns="http://www.w3.org/2000/svg" viewBox="0 0 24 24"><defs/><g><path fill="currentColor" fill-rule="evenodd" d="M12.05 2.42a10.04 10.04 0 00-3.18 19.56c.51.1.69-.22.69-.48v-1.71c-2.8.61-3.4-1.35-3.4-1.35a2.69 2.69 0 00-1.11-1.47c-.9-.62.07-.62.07-.62a2.11 2.11 0 011.54 1.04 2.14 2.14 0 002.92.83 2.13 2.13 0 01.61-1.34c-2.23-.25-4.57-1.11-4.57-4.93a3.88 3.88 0 011.03-2.7 3.66 3.66 0 01.1-2.65s.84-.27 2.76 1.03a9.5 9.5 0 015.03 0c1.91-1.3 2.75-1.03 2.75-1.03a3.64 3.64 0 01.12 2.64 3.88 3.88 0 011.03 2.7c0 3.85-2.34 4.7-4.58 4.92a2.37 2.37 0 01.68 1.85v2.76c0 .32.18.58.7.48a10.04 10.04 0 00-3.2-19.53z"/></g></svg>