<svg xmlns="http://www.w3.org/2000/svg" viewBox="0 0 6.35 6.35"><defs/><defs><linearGradient id="a" x1="8.39" x2="11.13" y1="1.11" y2="18.35" gradientUnits="userSpaceOnUse"><stop offset=".01" stop-color="#00b7f0"/><stop offset=".34" stop-color="#009de5"/><stop offset=".76" stop-color="#0082d9"/><stop offset="1" stop-color="#0078d4"/></linearGradient><linearGradient id="b" x1="14.38" x2="29.55" y1="26.64" y2="17.89" gradientUnits="userSpaceOnUse"><stop offset="0" stop-color="#0078d4"/><stop offset=".37" stop-color="#007ad5"/><stop offset=".57" stop-color="#0082d9"/><stop offset=".73" stop-color="#0090df"/><stop offset=".88" stop-color="#00a3e7"/><stop offset="1" stop-color="#00bcf2"/></linearGradient><linearGradient id="c" x1="10.45" x2="24.29" y1="6.69" y2="30.66" gradientUnits="userSpaceOnUse"><stop offset="0" stop-color="#00b7f0"/><stop offset="1" stop-color="#007cc1"/></linearGradient></defs><path fill="url(#a)" d="M18.52 9.73a8.76 8.73 0 01-8.76 8.73A8.76 8.73 0 011 9.73 8.76 8.73 0 019.76 1a8.76 8.73 0 018.76 8.73" transform="matrix(.17639 0 0 .17639 .35 .35)"/><path fill="url(#b)" d="M30.73 22.27A8.76 8.73 0 0121.96 31a8.76 8.73 0 01-8.76-8.73 8.76 8.73 0 018.76-8.74 8.76 8.73 0 018.77 8.74" transform="matrix(.17639 0 0 .17639 .35 .35)"/><path fill-rule="evenodd" d="M.53 2.2A1.54 1.54 0 102.27.54 2.8 2.8 0 00.53 2.2z" opacity=".05"/><path fill-rule="evenodd" d="M5.77 4.17a1.55 1.55 0 10-1.68 1.64 2.8 2.8 0 001.68-1.64z" opacity=".05"/><path fill-rule="evenodd" d="M.6 2.55A1.54 1.54 0 102.63.63 2.63 2.63 0 00.6 2.55zM5.7 3.8a1.54 1.54 0 10-1.98 1.94A2.63 2.63 0 005.7 3.8z" opacity=".1"/><path fill-rule="evenodd" d="M.66 2.7A1.54 1.54 0 102.76.69a2.54 2.54 0 00-2.1 2z" opacity=".1"/><path fill-rule="evenodd" d="M5.64 3.66a1.54 1.54 0 10-2.06 2.02 2.54 2.54 0 002.06-2.02z" opacity=".1"/><path fill="url(#c)" d="M29.74 16.07a13.87 13.83 0 01-13.88 13.82A13.87 13.83 0 012 16.07 13.87 13.83 0 0115.86 2.24a13.87 13.83 0 0113.88 13.83" transform="matrix(.17639 0 0 .17639 .35 .35)"/><path fill="#fff" fill-rule="evenodd" d="M2.46 3.1a.77.77 0 01-.24-.25.7.7 0 01-.08-.35.63.63 0 01.15-.43.9.9 0 01.39-.26 1.5 1.5 0 01.5-.08 1.97 1.97 0 01.34.02 1.22 1.22 0 01.24.06.45.45 0 01.18.12.24.24 0 01.06.16.23.23 0 01-.06.16.2.2 0 01-.15.06.27.27 0 01-.11-.02 2.02 2.02 0 00-.27-.1.96.96 0 00-.25-.03.58.58 0 00-.32.08.27.27 0 00-.13.24.24.24 0 00.06.17.6.6 0 00.18.13l.34.14a.35.35 0 01.05.02 2.38 2.38 0 01.41.22.84.84 0 01.26.26.7.7 0 01.09.36.73.73 0 01-.13.44.76.76 0 01-.36.27 1.5 1.5 0 01-.53.08 1.7 1.7 0 01-.74-.13.4.4 0 01-.15-.12.26.26 0 01-.04-.16A.2.2 0 012.2 4a.24.24 0 01.17-.06.42.42 0 01.19.05l.18.08a.88.88 0 00.15.05.87.87 0 00.2.02.52.52 0 00.32-.09.29.29 0 00.11-.24.25.25 0 00-.07-.17.74.74 0 00-.2-.15l-.38-.17a2.34 2.34 0 01-.42-.22"/></svg>